<svg width="307" height="539" viewBox="0 0 307 539" fill="none" xmlns="http://www.w3.org/2000/svg">
<g opacity="0.2">
<circle cx="153.239" cy="195.213" r="153.239" fill="#FF9B21"/>
<circle cx="246.514" cy="511.684" r="27.3164" fill="#2B44FF"/>
<path fill-rule="evenodd" clip-rule="evenodd" d="M127.921 0L160.567 32.6465L127.921 65.293L95.2744 32.6465L127.921 0Z" fill="#2B44FF"/>
<path fill-rule="evenodd" clip-rule="evenodd" d="M37.3103 459.716L53.3004 475.706L37.3103 491.696L21.3202 475.706L37.3103 459.716Z" fill="#FF9B21"/>
<path fill-rule="evenodd" clip-rule="evenodd" d="M268.501 41.9741L276.496 49.9691L268.501 57.9642L260.506 49.9691L268.501 41.9741Z" fill="#2026A2"/>
</g>
<path fill-rule="evenodd" clip-rule="evenodd" d="M158.941 228.688C163.255 231.289 167.494 232.545 169.484 232.032C174.474 230.746 174.933 212.492 171.072 205.296C167.211 198.099 147.363 194.963 146.363 209.221C146.016 214.169 148.094 218.586 151.164 222.189L145.659 247.847L161.649 247.847L158.941 228.688Z" fill="#B28B67"/>
<path fill-rule="evenodd" clip-rule="evenodd" d="M178.156 195.32C177.825 194.156 176.934 193.159 175.734 192.863C175.443 192.792 175.142 192.763 174.843 192.775C174.735 192.779 174.705 192.81 174.655 192.735C174.618 192.679 174.617 192.543 174.602 192.478C174.554 192.274 174.494 192.073 174.421 191.877C174.169 191.21 173.747 190.619 173.239 190.121C172.287 189.189 171.001 188.546 169.665 188.43C168.934 188.366 168.208 188.485 167.517 188.723C167.159 188.846 166.812 189 166.474 189.169C166.372 189.22 166.042 189.47 165.94 189.454C165.827 189.436 165.601 189.156 165.509 189.085C164.375 188.216 162.976 187.874 161.564 187.884C159.97 187.896 158.435 187.975 157.106 188.947C156.825 189.153 156.557 189.378 156.302 189.615C156.167 189.74 156.037 189.869 155.913 190.004C155.838 190.086 155.765 190.169 155.695 190.254C155.576 190.399 155.595 190.447 155.428 190.346C154.789 189.957 154.047 189.775 153.301 189.867C152.858 189.922 152.426 190.055 152.017 190.23C151.877 190.29 151.554 190.527 151.406 190.53C151.258 190.532 150.94 190.312 150.788 190.255C149.968 189.953 149.084 189.878 148.221 190.018C147.332 190.162 146.458 190.517 145.705 191.008C145.342 191.243 145.026 191.505 144.772 191.855C144.662 192.007 144.563 192.167 144.439 192.308C144.366 192.39 144.222 192.474 144.183 192.578C144.206 192.516 143.21 192.132 143.116 192.107C142.616 191.977 142.106 192.003 141.615 192.164C140.693 192.468 139.9 193.148 139.249 193.846C138.914 194.204 138.621 194.6 138.373 195.022C138.253 195.225 138.144 195.432 138.045 195.645C137.996 195.748 137.964 195.876 137.901 195.969C137.819 196.088 137.764 196.091 137.615 196.143C136.86 196.407 136.172 196.855 135.649 197.459C135.119 198.071 134.775 198.824 134.631 199.618C134.622 199.664 134.617 199.858 134.59 199.883C134.552 199.918 134.401 199.903 134.343 199.909C134.144 199.933 133.947 199.967 133.752 200.014C133.393 200.099 133.044 200.224 132.713 200.387C131.425 201.025 130.503 202.22 130.052 203.565C129.579 204.976 129.587 206.593 130.153 207.978C130.244 208.202 130.353 208.419 130.481 208.625C130.559 208.751 130.584 208.751 130.534 208.883C130.477 209.031 130.373 209.174 130.306 209.317C130.086 209.787 129.932 210.285 129.835 210.793C129.676 211.627 129.597 212.503 129.754 213.344C129.827 213.734 129.954 214.115 130.148 214.463C130.247 214.64 130.363 214.808 130.493 214.964C130.561 215.044 130.633 215.122 130.708 215.195C130.752 215.238 130.808 215.274 130.845 215.322C130.934 215.437 130.953 215.342 130.907 215.511C130.842 215.747 130.696 215.979 130.607 216.209C130.514 216.445 130.431 216.685 130.355 216.927C130.2 217.418 130.07 217.917 129.988 218.425C129.831 219.4 129.859 220.438 130.32 221.333C130.517 221.716 130.8 222.051 131.143 222.313C131.311 222.44 131.493 222.551 131.684 222.641C131.782 222.688 131.907 222.707 131.952 222.802C132 222.904 131.928 223.107 131.912 223.221C131.77 224.212 131.699 225.253 131.994 226.225C132.265 227.12 132.863 227.91 133.639 228.433C135.145 229.448 137.174 229.391 138.756 228.579C139.168 228.367 139.554 228.104 139.898 227.794C140.774 228.973 142.577 228.936 143.858 228.6C145.454 228.181 146.734 227.072 147.472 225.614C148.48 226.842 150.597 226.443 151.297 225.111C151.468 224.785 151.569 224.426 151.619 224.062C151.646 223.871 151.629 223.678 151.649 223.489C151.674 223.247 151.835 223.012 151.928 222.778C152.109 222.323 152.221 221.853 152.226 221.362C152.228 221.106 152.196 220.856 152.172 220.602C152.15 220.373 152.213 220.16 152.249 219.934C151.84 220.002 151.341 219.891 150.956 219.773C150.578 219.656 150.223 219.349 149.956 219.069C149.336 218.419 148.957 217.566 148.698 216.718C148.13 214.856 148.363 212.621 150.236 211.599C151.109 211.123 153.723 211.124 154.762 211.36C155.855 211.607 157.094 214.019 157.155 214.245C157.193 214.386 157.174 214.559 157.302 214.653C157.586 214.858 158.053 214.501 158.262 214.325C158.622 214.022 158.879 213.617 159.102 213.208C159.587 212.315 159.978 211.358 160.255 210.381C160.468 209.627 160.604 208.851 160.882 208.116C161.159 207.386 161.596 206.733 162.275 206.319C163.014 205.869 163.86 205.632 164.671 205.349C165.475 205.069 166.265 204.726 166.888 204.131C167.025 204 167.158 203.861 167.269 203.707C167.356 203.585 167.442 203.353 167.574 203.276C167.781 203.156 168.082 203.468 168.26 203.581C169.14 204.14 169.874 204.919 170.466 205.77C171.054 206.617 171.537 207.431 171.93 208.377C172.221 209.078 172.403 209.976 172.915 210.551C173.143 210.807 174.843 210.962 175.393 210.738C175.944 210.514 176.56 209.933 176.745 209.568C176.934 209.195 176.979 208.785 176.899 208.377C176.851 208.136 176.754 207.912 176.701 207.676C176.656 207.478 176.616 207.29 176.519 207.109C176.336 206.765 176.024 206.517 175.647 206.414C176.039 206.052 176.364 205.62 176.589 205.136C176.823 204.634 177.021 204.023 177.077 203.472C177.122 203.024 177.052 202.56 176.807 202.175C176.55 201.772 176.094 201.508 175.7 201.256C176.302 200.785 176.817 200.212 177.241 199.578C178.065 198.345 178.574 196.79 178.156 195.32Z" fill="#191847"/>
<path fill-rule="evenodd" clip-rule="evenodd" d="M142.994 307.81L175.695 390.576L197.627 460.549H206.288L172.758 307.81L142.994 307.81Z" fill="#B28B67"/>
<path fill-rule="evenodd" clip-rule="evenodd" d="M136.409 307.81C136.061 336.894 130.982 376.052 130.171 377.865C129.36 379.678 74.1536 423.976 74.1536 423.976L80.1187 430.36C80.1187 430.36 145.257 392.38 148.271 387.314C151.285 382.249 161.099 335.635 168.978 307.81H136.409Z" fill="#B28B67"/>
<path fill-rule="evenodd" clip-rule="evenodd" d="M75.3256 423.477C74.9683 422.362 73.7855 421.688 72.6932 422.11C71.4406 422.593 69.9436 423.249 69.2156 423.86C67.8351 425.018 65.5725 427.701 65.5725 427.701C66.9163 429.302 89.7271 456.487 89.7271 456.487C89.7271 456.487 94.3782 454.497 92.6455 451.831C90.9127 449.165 89.8093 447.366 89.8093 447.366L84.6416 429.311C84.4866 428.77 83.9149 428.463 83.3779 428.633L80.8973 429.42C80.8973 429.42 77.9752 428.058 76.8011 426.659C76.2108 425.956 75.6938 424.626 75.3256 423.477Z" fill="#E4E4E4"/>
<path fill-rule="evenodd" clip-rule="evenodd" d="M196.597 456.858C195.513 456.415 194.237 456.888 193.857 457.996C193.423 459.266 192.963 460.835 192.963 461.785C192.963 463.587 193.563 467.045 193.563 467.045C195.654 467.045 231.141 467.045 231.141 467.045C231.141 467.045 232.606 462.202 229.45 461.816C226.294 461.43 224.207 461.119 224.207 461.119L207.055 453.472C206.54 453.243 205.938 453.483 205.723 454.004L204.731 456.41C204.731 456.41 201.81 457.773 199.983 457.773C199.065 457.773 197.713 457.314 196.597 456.858Z" fill="#E4E4E4"/>
<path fill-rule="evenodd" clip-rule="evenodd" d="M164.98 453.342L206.158 448.873L175.64 307.81H138.759L164.98 453.342Z" fill="#69A1AC"/>
<path fill-rule="evenodd" clip-rule="evenodd" d="M82.6711 413.678L109.681 445.648C109.681 445.648 152.355 399.041 159.439 384.826C166.523 370.611 172.175 307.81 172.175 307.81H130.654C130.654 307.81 127.566 363.059 126.491 365.63C125.416 368.201 82.6711 413.678 82.6711 413.678Z" fill="#89C5CC"/>
<path fill-rule="evenodd" clip-rule="evenodd" d="M222.6 282.442L196.294 286.03L201.014 297.816L222.359 289.354C231.559 290.261 236.008 290.043 235.705 288.698C235.45 287.564 234.472 287.222 233.571 286.907C232.869 286.661 232.214 286.432 231.984 285.858C231.459 284.546 234.45 281.828 237.398 279.371C240.345 276.913 238.367 276.461 237.123 276.498C232.703 277.534 227.862 279.515 222.6 282.442ZM94.6224 347.058C96.5748 343.097 113.659 292.119 113.659 292.119L128.248 292.174C128.248 292.174 104.251 346.174 103.224 348.721C101.889 352.03 104.156 356.838 105.694 360.097C105.932 360.602 106.153 361.069 106.34 361.488C104.206 362.443 103.181 361.289 102.1 360.072C100.88 358.698 99.5881 357.243 96.5478 358.658C95.3732 359.204 94.2617 359.85 93.1758 360.482C89.4248 362.662 85.979 364.665 81.2913 361.773C80.5482 361.314 79.7338 359.587 81.7014 358.238C86.6036 354.877 93.6679 348.994 94.6224 347.058Z" fill="#997659"/>
<path fill-rule="evenodd" clip-rule="evenodd" d="M153.62 245.848L165.043 246.609C167.856 272.061 183.18 288.137 217.488 282.695L222.046 315.471C189.98 319.615 161.858 306.777 156.094 272.017C154.602 263.019 153.424 253.655 153.62 245.848Z" fill="#AFB9C5"/>
<path fill-rule="evenodd" clip-rule="evenodd" d="M96.6236 340.456C104.554 298.258 121.294 265.612 146.842 242.517L147.938 242.517L147.975 242.517L147.985 242.527L165.292 246.491C165.292 267.281 169.917 282.815 174.364 297.749C176.284 304.199 178.171 310.536 179.638 317.137L132.896 317.137C132.237 324.7 131.833 332.473 131.622 340.456L96.6236 340.456Z" fill="#C5CFD6"/>
<path fill-rule="evenodd" clip-rule="evenodd" d="M132.896 317.137C134.236 301.74 136.63 287.216 140.587 273.563C139.72 288.163 139.479 306.276 142.396 317.137L132.896 317.137Z" fill="black" fill-opacity="0.1"/>
</svg>
